<svg height="512pt" viewBox="-37 0 511 512" width="512pt" fill="#fff" xmlns="http://www.w3.org/2000/svg"><path d="m403.710938 0h-382.316407c-11.519531 0-20.894531 9.378906-20.894531 20.902344v470.195312c0 11.523438 9.375 20.902344 20.894531 20.902344h382.320313c18.628906 0 33.785156-15.164062 33.785156-33.800781v-444.425781c0-18.625-15.15625-33.773438-33.789062-33.773438zm-388.21875 491.097656v-470.195312c0-3.203125 2.703124-5.910156 5.902343-5.910156h331.976563c10.347656 0 18.765625 8.425781 18.765625 18.78125v444.425781c0 10.371093-8.417969 18.808593-18.765625 18.808593h-331.976563c-3.199219 0-5.902343-2.707031-5.902343-5.910156zm407.015624-12.898437c0 8.75-6.007812 16.101562-14.109374 18.195312 3.367187-5.257812 5.332031-11.5 5.332031-18.195312v-233.582031c0-4.136719-3.355469-7.492188-7.496094-7.492188s-7.496094 3.355469-7.496094 7.492188v233.582031c0 9.871093-7.628906 17.972656-17.289062 18.734375 3.585937-5.367188 5.679687-11.808594 5.679687-18.734375v-444.425781c0-6.914063-2.09375-13.347657-5.671875-18.707032 9.65625.761719 17.28125 8.851563 17.28125 18.707032v174.25c0 4.140624 3.355469 7.492187 7.496094 7.492187s7.496094-3.351563 7.496094-7.492187v-174.25c0-6.683594-1.960938-12.917969-5.324219-18.167969 8.097656 2.09375 14.101562 9.433593 14.101562 18.167969zm0 0"/><path d="m232.640625 141.152344c0-22.96875-18.675781-41.65625-41.632813-41.65625-22.957031 0-41.632812 18.6875-41.632812 41.65625 0 22.984375 18.675781 41.679687 41.632812 41.679687 22.957032 0 41.632813-18.695312 41.632813-41.679687zm-68.273437 0c0-14.703125 11.949218-26.664063 26.640624-26.664063 14.691407 0 26.644532 11.960938 26.644532 26.664063 0 14.714844-11.953125 26.691406-26.644532 26.691406-14.691406 0-26.640624-11.976562-26.640624-26.691406zm0 0"/><path d="m286.679688 370.410156h-198.652344c-15.285156 0-27.722656 12.457032-27.722656 27.765625v5.414063c0 15.308594 12.4375 27.761718 27.722656 27.761718h79.691406c4.140625 0 7.496094-3.351562 7.496094-7.492187s-3.355469-7.496094-7.496094-7.496094h-79.691406c-7.019532 0-12.730469-5.730469-12.730469-12.773437v-5.414063c0-7.042969 5.710937-12.773437 12.730469-12.773437h198.652344c7.019531 0 12.730468 5.730468 12.730468 12.773437v5.414063c0 7.042968-5.710937 12.773437-12.730468 12.773437h-82.921876c-4.140624 0-7.496093 3.355469-7.496093 7.496094s3.355469 7.492187 7.496093 7.492187h82.921876c15.285156 0 27.722656-12.453124 27.722656-27.761718v-5.414063c0-15.308593-12.433594-27.765625-27.722656-27.765625zm0 0"/><path d="m306.347656 215.585938c-48.554687-4.824219-77.742187 13.796874-88.863281 32.832031-6.875 11.769531-8.101563 25.140625-3.835937 37.636719l-15.683594 8.503906v-82.507813c6.289062 3.375 13.363281 5.167969 20.75 5.167969 24.238281 0 43.957031-19.730469 43.957031-43.980469 0-5.054687-.875-10.089843-2.5625-14.832031 9.867187-8.289062 15.597656-20.441406 15.597656-33.613281 0-23.945313-19.230469-43.480469-43.050781-43.96875-6.90625-15.800781-22.710938-26.398438-40.285156-26.398438-17.40625 0-32.78125 10.019531-39.894532 25.460938-23.9375.351562-43.300781 19.941406-43.300781 43.972656 0 13.039063 5.898438 25.433594 15.738281 33.722656-1.894531 5-2.878906 10.3125-2.878906 15.660157 0 24.25 19.71875 43.976562 43.957032 43.976562 5.941406 0 11.683593-1.164062 16.980468-3.375v80.71875l-15.679687-8.507812c4.269531-12.496094 3.039062-25.867188-3.835938-37.640626-11.117187-19.035156-40.300781-37.648437-88.855469-32.828124-8.371093.824218-14.605468 3.679687-18.523437 8.492187-3.664063 4.496094-5.132813 10.394531-4.371094 17.535156.011719.128907.027344.253907.050781.378907 2.828126 17.839843 10.820313 35.242187 22.507813 49.007812 11.34375 13.359375 25.347656 22.53125 39.429687 25.828125 3.820313.894531 7.574219 1.335937 11.222657 1.335937 14.074219 0 26.605469-6.546874 35.441406-18.816406l22.617187 12.265625v18.386719c0 4.140625 3.355469 7.496094 7.496094 7.496094s7.496094-3.355469 7.496094-7.496094v-18.386719l22.617188-12.265625c8.835937 12.269532 21.363281 18.816406 35.4375 18.816406 3.648437 0 7.402343-.441406 11.222656-1.335937 14.085937-3.296875 28.089844-12.46875 39.429687-25.828125 11.6875-13.765625 19.679688-31.167969 22.511719-49.007812.019531-.117188.035156-.238282.046875-.359376.777344-7.132812-.683594-13.03125-4.339844-17.53125-3.917969-4.824218-10.164062-7.691406-18.546875-8.515624zm-169.320312-42.34375c0-5.023438 1.320312-10.011719 3.816406-14.425782 1.996094-3.53125.820312-8.011718-2.652344-10.105468-8.78125-5.304688-14.027344-14.59375-14.027344-24.851563 0-15.980469 12.996094-28.988281 28.96875-28.988281 1.183594 0 2.367188.070312 3.515626.207031 3.601562.417969 6.972656-1.78125 8.039062-5.238281 3.765625-12.214844 14.890625-20.421875 27.683594-20.421875 12.917968 0 24.386718 8.695312 27.882812 21.148437.984375 3.503906 4.324219 5.792969 7.964844 5.429688 1.273438-.125 2.429688-.1875 3.53125-.1875 15.972656 0 28.964844 13.003906 28.964844 28.988281 0 10.152344-5.167969 19.390625-13.824219 24.710937-3.386719 2.078126-4.558594 6.4375-2.675781 9.9375 2.300781 4.273438 3.46875 8.917969 3.46875 13.796876 0 15.984374-12.996094 28.988281-28.964844 28.988281-7.996094 0-15.429688-3.175781-20.925781-8.9375-1.414063-1.476563-3.371094-2.316407-5.414063-2.316407-.003906 0-.007812 0-.007812 0-.320313 0-.636719.023438-.949219.066407-.3125-.042969-.628906-.066407-.949219-.066407-3.480468 0-6.394531 2.371094-7.242187 5.585938-4.953125 3.675781-10.921875 5.664062-17.234375 5.664062-15.972656.003907-28.96875-13-28.96875-28.984374zm-19.914063 128.992187c-20.414062-4.78125-45.027343-28.261719-50.519531-62.390625-.289062-2.921875.085938-5.042969 1.105469-6.296875 1.285156-1.578125 4.179687-2.628906 8.378906-3.042969 41.5-4.117187 65.660156 10.453125 74.433594 25.472656 4.203125 7.203126 5.285156 15.105469 3.328125 22.78125l-27.222656-14.761718c-3.640626-1.976563-8.1875-.625-10.160157 3.015625-1.976562 3.636719-.625 8.1875 3.015625 10.160156l27.554688 14.945313c-9.457032 11.863281-21.386719 12.113281-29.914063 10.117187zm197.234375-62.398437c-5.488281 34.132812-30.105468 57.617187-50.519531 62.398437-8.523437 1.992187-20.453125 1.746094-29.914063-10.117187l27.554688-14.945313c3.640625-1.972656 4.992188-6.523437 3.015625-10.160156-1.972656-3.640625-6.523437-4.992188-10.160156-3.015625l-27.21875 14.761718c-1.957031-7.675781-.878907-15.578124 3.324219-22.78125 8.773437-15.019531 32.941406-29.597656 74.441406-25.472656 4.203125.414063 7.105468 1.46875 8.390625 3.050782 1.015625 1.253906 1.382812 3.367187 1.085937 6.28125zm0 0"/></svg>
