<svg height="488pt" viewBox="0 -41 488.28602 488" width="488pt" fill="#fff" xmlns="http://www.w3.org/2000/svg"><path d="m247.089844 111.964844v-20.820313h1.085937c4.421875 0 7.914063-4.0625 7.914063-8.480469v-74.601562c.015625-2.105469-.8125-4.128906-2.296875-5.617188-1.488281-1.488281-3.511719-2.316406-5.617188-2.300781h-203.457031c-2.074219-.003906-4.0625.835938-5.503906 2.332031-1.4375 1.492188-2.207032 3.511719-2.125 5.582032v74.601562c0 4.417969 3.210937 8.480469 7.628906 8.480469h1.371094v20.855469c0 .050781-.28125.097656-.382813.152344-.390625.195312-.816406.394531-1.203125.59375-.492187.253906-1.007812.507812-1.5.769531-.390625.210937-.789062.433593-1.179687.652343-.472657.265626-.949219.527344-1.414063.804688-.394531.230469-.78125.46875-1.167968.703125-.457032.28125-.910157.558594-1.359376.84375-.382812.25-.769531.5-1.148437.753906-.4375.292969-.871094.585938-1.300781.882813-.378906.269531-.757813.535156-1.132813.800781-.421875.304687-.84375.613281-1.257812.925781-.371094.277344-.742188.558594-1.109375.84375-.40625.316406-.8125.640625-1.214844.964844-.363281.292969-.722656.585938-1.078125.882812-.398437.332032-.789063.671876-1.179687 1.011719-.347657.304688-.699219.609375-1.042969.917969-.386719.347656-.761719.703125-1.144531 1.054688-.335938.316406-.675782.628906-1.007813.953124-.371094.363282-.738281.730469-1.105469 1.097657-.324218.328125-.648437.648437-.96875.980469-.363281.378906-.71875.765624-1.078125 1.152343-.304687.332031-.617187.664063-.917969 1-.363281.398438-.710937.8125-1.0625 1.222657-.289062.332031-.578124.660156-.859374 1-.367188.441406-.722657.890624-1.078126 1.335937-.253906.320313-.515624.632813-.761718.953125-.441406.566406-.867188 1.144531-1.292969 1.722656-.242187.332032-.484375.660156-.722656.992188-.472657.667968-.945313 1.339844-1.398438 2.019531-.21875.324219-.421875.65625-.636719.984375-.320312.496094-.644531.988281-.957031 1.492188-.226562.367187-.441406.738281-.664062 1.109374-.28125.472657-.566407.941407-.839844 1.417969-.222656.390625-.433594.785157-.652344 1.179688-.257812.46875-.515625.933593-.765625 1.398437-.210937.40625-.414062.816406-.621094 1.226563-.238281.46875-.476562.9375-.703124 1.410156-.199219.417969-.390626.835937-.585938 1.253906-.21875.476563-.4375.953125-.648438 1.433594-.1875.421875-.367187.847656-.546874 1.277344-.199219.480469-.398438.964843-.597657 1.453125-.171875.433594-.339843.867187-.5 1.300781-.1875.492187-.371093.980469-.546875 1.476563-.15625.4375-.308594.875-.457031 1.316406-.171875.5-.335937 1-.496094 1.5-.140625.441406-.277343.886718-.410156 1.332031-.152344.507813-.300781 1.015625-.441406 1.527344-.125.445312-.246094.890625-.363281 1.339843-.136719.515626-.261719 1.039063-.390626 1.558594-.105468.445313-.214843.890625-.3125 1.339844-.117187.53125-.226562 1.0625-.335937 1.601562-.089844.441407-.179687.886719-.265625 1.332032-.097656.546875-.191406 1.09375-.28125 1.644531-.074219.4375-.148438.875-.214844 1.316406-.082031.5625-.152344 1.132813-.226562 1.699219-.054688.429688-.113282.855469-.160156 1.285156-.066407.597656-.117188 1.199219-.171876 1.796875-.035156.402344-.078124.800781-.109374 1.207031-.0507818.671876-.0820318 1.347657-.11328175 2.019532-.01953125.335937.06249995.675781.05078125 1.011718-.0390625 1.011719.0468745 2.03125.0468745 3.046876v174.882812c-.0117182 24.804688 20.066407 44.933594 44.871094 44.988281h202.976563c24.863281-.039062 45.03125-20.148437 45.140625-45.011719v-174.847656c.042968-16.433594-4.769532-32.511718-13.835938-46.214844-7.96875-12.117187-19.089844-21.832031-32.164062-28.105468zm-194-95.820313h187v59h-187zm224 344.964844c-.09375 16.046875-13.117188 29.015625-29.164063 29.035156h-202.929687c-15.996094-.027343-28.9375-13.019531-28.90625-29.011719v-174.851562c-.015625-14.085938 4.386718-27.820312 12.589844-39.273438.945312-1.316406 1.886718-2.597656 2.925781-3.839843.519531-.621094 1.023437-1.472657 1.5625-2.074219 6.609375-7.292969 14.710937-13.074219 23.757812-16.949219h.070313c3.039062-.945312 5.105468-3.761719 5.09375-6.945312v-26.054688h169v26.058594c-.011719 3.28125 1.984375 6.230469 5.035156 7.441406 24.515625 9.679688 40.964844 34.453125 40.964844 61.640625zm0 0"/><path d="m228.089844 224.144531h-49v-49c0-4.417969-3.582032-8-8-8h-49c-4.417969 0-8 3.582031-8 8v49h-48c-4.417969 0-8 3.582031-8 8v46c0 4.417969 3.582031 8 8 8h48v49c0 4.417969 3.582031 8 8 8h49c4.417968 0 8-3.582031 8-8v-49h49c4.417968 0 8-3.582031 8-8v-46c0-4.417969-3.582032-8-8-8zm-8 46h-49c-4.417969 0-8 3.582031-8 8v49h-33v-49c0-4.417969-3.582032-8-8-8h-48v-30h48c4.417968 0 8-3.582031 8-8v-49h33v49c0 4.417969 3.582031 8 8 8h49zm0 0"/><path d="m460.394531 276.285156-93.941406-34.441406c-21.914063-8.042969-46.210937 3.082031-54.449219 24.921875-8.234375 21.839844 2.671875 46.234375 24.4375 54.664063-22.40625 2.53125-38.9375 22.121093-37.65625 44.636718 1.277344 22.511719 19.921875 40.105469 42.46875 40.078125h100.058594c15.027344.023438 28.945312-7.894531 36.605469-20.824219 7.660156-12.925781 7.914062-28.941406.675781-42.109374 8.761719-10.640626 11.820312-24.867188 8.203125-38.167969s-13.460937-24.019531-26.402344-28.757813zm10.273438 49.070313c-.679688 1.847656-1.566407 3.613281-2.636719 5.265625-7.554688-6.136719-16.988281-9.484375-26.71875-9.476563h-42.128906l16.242187-44.308593 39.460938 14.46875c13.75 5.058593 20.808593 20.292968 15.78125 34.050781zm-142.933594-32.414063c-4.515625-9.738281-2.71875-21.234375 4.554687-29.132812 7.269532-7.894532 18.578126-10.636719 28.65625-6.941406l39.460938 14.46875-14.023438 38.25c1.507813-4.144532-.621093-8.730469-4.761718-10.246094l-31.953125-11.714844c-2.6875-1.007812-5.710938-.496094-7.917969 1.339844-2.207031 1.835937-3.261719 4.714844-2.765625 7.542968.5 2.828126 2.476563 5.167969 5.179687 6.140626l31.949219 11.710937c1.988281.734375 4.1875.644531 6.113281-.246094 1.925782-.894531 3.414063-2.511719 4.144532-4.503906l-4.230469 11.535156h-.035156l-39.429688-14.453125c-6.617187-2.402344-11.996093-7.351562-14.941406-13.75zm-13.015625 70.703125c.019531-14.644531 11.894531-26.503906 26.535156-26.5h41.835938v40.742188c.03125-2.074219-.785156-4.070313-2.253906-5.53125-1.472657-1.460938-3.476563-2.257813-5.546876-2.210938h-34.035156c-4.417968 0-8 3.582031-8 8s3.582032 8 8 8h34.035156c4.414063-.125 7.898438-3.792969 7.800782-8.210937v12.210937h-41.835938c-14.640625 0-26.515625-11.859375-26.535156-26.5zm126.59375 26.5h-42.222656v-53h42.222656c14.632812 0 26.5 11.863281 26.5 26.5 0 14.632813-11.867188 26.5-26.5 26.5zm0 0"/></svg>
